<?xml version="1.0" encoding="UTF-8"?>
<svg viewBox="0 0 793.7 1122.5" xmlns="http://www.w3.org/2000/svg">
 <defs>
  <radialGradient id="e" cx="273.3" cy="63.25" r="79.5" gradientTransform="matrix(2.3785 -1.0542 .45695 1.4286 347.59 312.74)" gradientUnits="userSpaceOnUse">
   <stop stop-color="#fff" stop-opacity=".677" offset="0"/>
   <stop stop-color="#fff" stop-opacity="0" offset="1"/>
  </radialGradient>
  <radialGradient id="d" cx="200.42" cy="-23.927" r="98" gradientTransform="matrix(2.0072 4.0145 -7.2063 3.6031 -60.236 -302.1)" gradientUnits="userSpaceOnUse">
   <stop stop-color="#a43c0e" offset="0"/>
   <stop stop-color="#ce907e" offset="1"/>
  </radialGradient>
  <radialGradient id="f" cx="293.28" cy="140.94" r="82" gradientTransform="matrix(3.1939 -.90791 .71396 2.5116 90.403 380.61)" gradientUnits="userSpaceOnUse">
   <stop stop-color="#3c2018" stop-opacity=".66" offset="0"/>
   <stop stop-color="#3c2018" stop-opacity="0" offset="1"/>
  </radialGradient>
 </defs>
 <g stroke-linecap="round" stroke-linejoin="bevel" stroke-width=".5">
  <path d="m710.88 355.45a283.49 283.49 0 1 1 -0.016235 -3.0452" fill="#3c2018"/>
  <path d="m421.9 71.962c-88.148 1.6767-166.45 43.695-217.32 108.3 18.377-6.056 70.489-20.492 96.275 1.2656 20.658 17.43 33.269 27.646 42.036 48.364 21.427-7.421 41.578-13.711 60.477-19.074-31.87-80.109-60.387-124.21-60.387-124.21l13.198-4.52s24.853 33.446 60.658 125.02c21.349-5.7168 41.049-10.186 59.212-13.56-1.9614-6.2272-3.2876-11.354-4.2488-15.006-4.9424-18.781-11.844-51.442 2.9832-67.257 14.827-15.816 34.623-25.673 34.623-25.673l16.724 5.9664c-2.6099 0.61593-44.423 11.128-45.38 51.347-0.3671 15.419 3.3059 32.468 8.588 48.273 125.77-20.619 172.72 12.015 182.52 20.521-49.304-83.721-140.36-139.76-244.44-139.76-1.8338 0-3.6888-0.034721-5.5143 0zm-171.13 107.03c-19.26 0.54587-42.025 7.151-53.426 10.848-33.618 46.601-53.426 103.8-53.426 165.61 0 12.469 0.78702 24.747 2.3504 36.793 11.946-31.964 53.524-110.47 183.51-157.66-2.1382-5.4226-4.2915-10.1-6.2376-13.56-8.8962-15.816-29.63-33.58-56.319-40.499-4.8478-1.2568-10.48-1.706-16.453-1.5368zm314.05 18.261c-20.186 0.33044-43.66 2.3809-70.783 6.8704 8.416 21.033 21.441 39.827 26.111 44.497 8.8962 8.8962 72.279 63.385 78.21 69.316 5.9307 5.9308 41.455 33.565 65.178 68.161 18.163 26.488 27.02 54.673 30.193 66.444 11.054-30.293 17.176-62.987 17.176-97.089v-3.0736c-0.51526-47.958-12.985-93.043-34.442-132.44l2.1696 5.3336c0 0.008408 1.22e-4 0.079956 0 0.090393-0.010498 3.66e-4 -0.08197 7.6e-5 -0.090393 0-0.008118-0.009125-0.082092-0.081909-0.090393-0.090393-2.5745-1.988-30.465-29.385-113.63-28.024zm-84.252 9.3112c-18.034 3.3781-37.574 7.7924-58.76 13.47 5.7564 15.174 11.783 31.822 17.989 49.991 75.847 222.05 89.134 347.68 89.134 347.68l-11.571 4.7007c1.7765-5.2346-35.668-183.22-92.208-352.2-5.5284-16.522-11.186-32.015-16.724-46.465-19.039 5.4001-39.32 11.778-60.929 19.255 2.5365 8.637 4.7087 18.914 6.6896 31.459 8.8963 56.343-21.591 115.61-25.603 125.61-5.6056 13.974-24.658 61.007-32.704 118.46-4.8452 34.598 0.97968 81.033 5.424 90.942 0.02356 0.011658 0.066803-0.011719 0.090393 0 37.952 18.869 80.782 29.47 126.02 29.47 114.92 0 213.96-68.512 258.45-166.88l-0.5424 0.8136c0.51886-3.3598-6.1479-47.757-26.668-74.941-29.925-39.643-44.223-54.005-95.13-95.753-44.056-36.13-72.675-69.291-82.958-95.622zm-146.18 41.041c-0.60535 0.21686-1.2005 0.41418-1.808 0.6328-126.97 45.698-172.03 135.72-183.15 163.17 16.223 80.978 66.97 149.48 136.23 189.57-0.89835-10.799-3.2553-44.454-1.6272-79.461 1.977-42.504 31.573-120.56 35.527-130.45 3.9539-9.8847 23.781-73.161 24.77-92.931 0.61301-12.26-4.1559-32.862-9.944-50.533z" fill="url(#d)"/>
  <path d="m619.68 157.59a225.27 125.29 0 1 1 -0.26007 -1.3428" fill="url(#e)"/>
  <path d="m708.28 500.15a237.21 240.1 0 1 1 -0.013672 -2.5791" fill="url(#f)"/>
 </g>
</svg>
